<svg width="14" height="14" viewBox="0 0 14 14" fill="none" xmlns="http://www.w3.org/2000/svg">
<path opacity="0.7" fill-rule="evenodd" clip-rule="evenodd" d="M7 0C5.0988 0 4.8608 0.00839996 4.1139 0.042C3.3691 0.0763 2.8602 0.1946 2.415 0.3675C1.94774 0.543091 1.52443 0.818532 1.1746 1.1746C0.818549 1.52444 0.543112 1.94775 0.3675 2.415C0.1946 2.8602 0.0763 3.3691 0.042 4.1139C0.00769996 4.8608 0 5.0988 0 7C0 8.9012 0.00769996 9.1392 0.042 9.8861C0.0763 10.6309 0.1946 11.1398 0.3675 11.585C0.543132 12.0522 0.818567 12.4755 1.1746 12.8254C1.52446 13.1814 1.94776 13.4569 2.415 13.6325C2.8602 13.8054 3.3691 13.9237 4.1139 13.958C4.8608 13.9916 5.0988 14 7 14C8.9012 14 9.1392 13.9916 9.8861 13.958C10.6309 13.9237 11.1398 13.8054 11.585 13.6325C12.0522 13.4569 12.4756 13.1815 12.8254 12.8254C13.1815 12.4756 13.4569 12.0522 13.6325 11.585C13.8054 11.1398 13.9237 10.6309 13.958 9.8861C13.9916 9.1392 14 8.9012 14 7C14 5.0988 13.9916 4.8608 13.958 4.1139C13.9237 3.3691 13.8054 2.8602 13.6325 2.415C13.4569 1.94775 13.1815 1.52444 12.8254 1.1746C12.4756 0.818532 12.0523 0.543091 11.585 0.3675C11.1398 0.1946 10.6309 0.0763 9.8861 0.042C9.1392 0.00839996 8.9012 0 7 0ZM7 1.2614C8.869 1.2614 9.0902 1.2684 9.828 1.302C10.5112 1.3335 10.8815 1.4469 11.1286 1.5428C11.4548 1.6702 11.6886 1.8221 11.9336 2.0664C12.1786 2.3114 12.3298 2.5452 12.4572 2.8714C12.5524 3.1185 12.6672 3.4888 12.698 4.1713C12.7316 4.9098 12.7386 5.1303 12.7386 7C12.7386 8.869 12.7316 9.0902 12.698 9.828C12.6665 10.5112 12.5524 10.8815 12.4572 11.1286C12.345 11.4327 12.1661 11.7077 11.9336 11.9336C11.6886 12.1786 11.4548 12.3298 11.1286 12.4572C10.8815 12.5524 10.5112 12.6672 9.8287 12.698C9.0909 12.7316 8.8697 12.7386 7 12.7386C5.131 12.7386 4.9091 12.7316 4.172 12.698C3.4888 12.6665 3.1185 12.5524 2.8714 12.4572C2.56731 12.345 2.29223 12.1661 2.0664 11.9336C1.8339 11.7078 1.65498 11.4327 1.5428 11.1286C1.4469 10.8815 1.3328 10.5112 1.302 9.8287C1.2684 9.0902 1.2614 8.8697 1.2614 7C1.2614 5.131 1.2684 4.9098 1.302 4.172C1.3335 3.4888 1.4469 3.1185 1.5428 2.8714C1.6702 2.5452 1.8221 2.3114 2.0664 2.0664C2.3114 1.8214 2.5452 1.6702 2.8714 1.5428C3.1185 1.4469 3.4888 1.3328 4.1713 1.302C4.9098 1.2684 5.1303 1.2614 7 1.2614ZM7 9.3331C6.38122 9.3331 5.78779 9.08729 5.35025 8.64975C4.91271 8.21221 4.6669 7.61878 4.6669 7C4.6669 6.38122 4.91271 5.78779 5.35025 5.35025C5.78779 4.91271 6.38122 4.6669 7 4.6669C7.61878 4.6669 8.21221 4.91271 8.64975 5.35025C9.08729 5.78779 9.3331 6.38122 9.3331 7C9.3331 7.61878 9.08729 8.21221 8.64975 8.64975C8.21221 9.08729 7.61878 9.3331 7 9.3331ZM7 3.4055C6.52796 3.4055 6.06055 3.49847 5.62444 3.67911C5.18834 3.85976 4.79208 4.12452 4.4583 4.4583C4.12452 4.79209 3.85976 5.18834 3.67911 5.62444C3.49847 6.06055 3.4055 6.52796 3.4055 7C3.4055 7.47204 3.49847 7.93945 3.67911 8.37556C3.85976 8.81166 4.12452 9.20791 4.4583 9.54169C4.79208 9.87547 5.18834 10.1402 5.62444 10.3209C6.06055 10.5015 6.52796 10.5945 7 10.5945C7.95332 10.5945 8.8676 10.2158 9.54169 9.54169C10.2158 8.8676 10.5945 7.95332 10.5945 7C10.5945 6.04668 10.2158 5.1324 9.54169 4.4583C8.8676 3.78421 7.95332 3.4055 7 3.4055ZM11.5766 3.2634C11.5766 3.37371 11.5549 3.48294 11.5127 3.58485C11.4704 3.68677 11.4086 3.77937 11.3306 3.85737C11.2526 3.93537 11.16 3.99724 11.0581 4.03946C10.9561 4.08167 10.8469 4.1034 10.7366 4.1034C10.6263 4.1034 10.5171 4.08167 10.4151 4.03946C10.3132 3.99724 10.2206 3.93537 10.1426 3.85737C10.0646 3.77937 10.0028 3.68677 9.96054 3.58485C9.91833 3.48294 9.8966 3.37371 9.8966 3.2634C9.8966 3.04062 9.9851 2.82696 10.1426 2.66943C10.3002 2.5119 10.5138 2.4234 10.7366 2.4234C10.9594 2.4234 11.173 2.5119 11.3306 2.66943C11.4881 2.82696 11.5766 3.04062 11.5766 3.2634Z" fill="#000958"/>
</svg>
