<svg width="14" height="14" viewBox="0 0 14 14" fill="none" xmlns="http://www.w3.org/2000/svg">
<path opacity="0.7" d="M13.2222 0H0.777778C0.571498 0 0.373667 0.0819442 0.227806 0.227806C0.0819442 0.373667 0 0.571498 0 0.777778V13.2222C0 13.4285 0.0819442 13.6263 0.227806 13.7722C0.373667 13.9181 0.571498 14 0.777778 14H13.2222C13.4285 14 13.6263 13.9181 13.7722 13.7722C13.9181 13.6263 14 13.4285 14 13.2222V0.777778C14 0.571498 13.9181 0.373667 13.7722 0.227806C13.6263 0.0819442 13.4285 0 13.2222 0ZM4.15256 11.9288H2.07433V5.24767H4.15256V11.9288ZM3.11344 4.33533C2.79412 4.33533 2.48788 4.20848 2.26209 3.98269C2.03629 3.7569 1.90944 3.45065 1.90944 3.13133C1.90944 2.81201 2.03629 2.50577 2.26209 2.27998C2.48788 2.05418 2.79412 1.92733 3.11344 1.92733C3.43277 1.92733 3.73901 2.05418 3.9648 2.27998C4.19059 2.50577 4.31744 2.81201 4.31744 3.13133C4.31744 3.45065 4.19059 3.7569 3.9648 3.98269C3.73901 4.20848 3.43277 4.33533 3.11344 4.33533ZM11.9296 11.9288H9.85367V8.68C9.85367 7.90533 9.83967 6.909 8.77411 6.909C7.693 6.909 7.52889 7.75367 7.52889 8.62556V11.9296H5.45456V5.24844H7.44567V6.16156H7.47444C7.75056 5.63656 8.42878 5.08278 9.43756 5.08278C11.5407 5.08278 11.9288 6.46567 11.9288 8.26544V11.9288H11.9296Z" fill="#000958"/>
</svg>
