<svg width="103" height="38" viewBox="0 0 103 38" fill="none" xmlns="http://www.w3.org/2000/svg">
<path d="M45 25.5005V7H49.176V21.8511H56.4585V25.5005H45Z" fill="#000958"/>
<path d="M63.3571 25.9314C61.7444 25.9314 60.5052 25.416 59.6395 24.3854C58.7737 23.3548 58.3408 21.7835 58.3408 19.6716V11.6125H62.415V19.8743C62.415 20.6177 62.6272 21.2091 63.0515 21.6484C63.4759 22.0876 64.0446 22.3073 64.7576 22.3073C65.4875 22.3073 66.0817 22.0792 66.54 21.623C66.9984 21.1668 67.2275 20.5502 67.2275 19.773V11.6125H71.3017V25.5005H68.0678V22.2566C67.4907 24.7064 65.9798 25.9314 63.5353 25.9314H63.3571Z" fill="#000958"/>
<path d="M81.3223 25.982C80.117 25.982 79.0646 25.7878 78.1649 25.3992C77.2821 24.9937 76.5437 24.453 75.9495 23.7772C75.3554 23.1014 74.914 22.3411 74.6254 21.4963C74.3369 20.6346 74.1926 19.7476 74.1926 18.8353V18.3537C74.1926 17.0866 74.4557 15.9039 74.9819 14.8057C75.5252 13.7075 76.323 12.8205 77.3755 12.1447C78.445 11.4688 79.7521 11.1309 81.2968 11.1309C82.553 11.1309 83.6649 11.3759 84.6326 11.8659C85.6002 12.339 86.3725 13.0063 86.9497 13.868C87.5269 14.7297 87.8494 15.7181 87.9173 16.8332H83.9196C83.8517 16.208 83.597 15.6843 83.1557 15.2619C82.7143 14.8226 82.0947 14.603 81.2968 14.603C80.2613 14.603 79.4974 14.9747 79.0051 15.7181C78.5129 16.4446 78.2667 17.4076 78.2667 18.6072C78.2667 19.7392 78.4959 20.6769 78.9542 21.4203C79.4295 22.1468 80.2189 22.51 81.3223 22.51C82.1371 22.51 82.7737 22.2988 83.2321 21.8765C83.6904 21.4541 83.962 20.8965 84.0469 20.2038H88.0192C87.9513 21.3527 87.6203 22.3664 87.0261 23.245C86.4489 24.1067 85.6596 24.7825 84.658 25.2724C83.6734 25.7455 82.5615 25.982 81.3223 25.982Z" fill="#000958"/>
<path d="M93.1711 25.1964L88.8933 11.6125H92.9929L96.074 22.0285H96.5832L99.1296 11.6125H103L99.1041 26.6156C98.8155 27.6969 98.4251 28.5586 97.9328 29.2006C97.4575 29.8427 96.8124 30.2988 95.9976 30.5692C95.1997 30.8564 94.1897 31 92.9674 31H90.472V27.5533H93.3748C94.0199 27.5533 94.5207 27.4266 94.8772 27.1732C95.2506 26.9197 95.5223 26.4636 95.692 25.8046L95.8193 25.1964H93.1711Z" fill="#000958"/>
<path d="M16.5064 25.9396C18.408 25.9396 18.408 27.8593 20.3341 27.8593C23.2048 27.8593 23.4763 24.1624 21.5772 22.2771C19.6781 20.3918 19.6755 17.8781 16.5064 17.8781C13.3372 17.8781 13.3372 20.3918 11.4356 22.2771C9.53393 24.1624 9.80793 27.9329 12.6786 27.9329C14.6047 27.9329 14.6047 25.9396 16.5064 25.9396Z" fill="#000958"/>
<path d="M13.203 15.9637C14.5774 15.7665 15.4718 14.0747 15.2008 12.1849C14.9297 10.2951 13.5958 8.92293 12.2214 9.12007C10.847 9.31721 9.95253 11.009 10.2236 12.8988C10.4947 14.7886 11.8286 16.1608 13.203 15.9637Z" fill="#000958"/>
<path d="M22.784 12.8855C23.055 10.9957 22.1606 9.30386 20.7862 9.10673C19.4118 8.90959 18.0778 10.2818 17.8068 12.1716C17.5357 14.0614 18.4302 15.7532 19.8046 15.9503C21.179 16.1475 22.5129 14.7753 22.784 12.8855Z" fill="#000958"/>
<path d="M8.93682 20.2523C9.87392 19.7984 10.1429 18.4175 9.5376 17.168C8.93231 15.9185 7.68195 15.2737 6.74486 15.7276C5.80776 16.1816 5.53878 17.5625 6.14408 18.812C6.74937 20.0614 7.99973 20.7063 8.93682 20.2523Z" fill="#000958"/>
<path d="M26.8611 18.7968C27.4664 17.5473 27.1974 16.1664 26.2603 15.7124C25.3232 15.2585 24.0729 15.9034 23.4676 17.1528C22.8623 18.4023 23.1312 19.7832 24.0683 20.2371C25.0054 20.6911 26.2558 20.0462 26.8611 18.7968Z" fill="#000958"/>
<path d="M16.6587 0C26.7883 0 35 8.2117 35 18.3413C35 29.4827 25.4087 39.5433 12.6202 36.6827C10.2644 36.0096 6.56249 34.3269 4.54326 33.3173C2.52403 32.3077 2.86057 31.803 3.02884 31.6347C3.19711 31.4664 3.87018 31.1299 5.04807 31.6347C5.34307 31.7611 5.67367 31.91 6.03427 32.0724C7.11345 32.5583 8.46131 33.1652 9.92788 33.6539C10.9375 33.9904 12.6202 33.9904 13.4615 33.4856C13.9247 33.2077 14.6094 32.2776 14.1346 31.8029C13.7981 31.4663 12.7885 31.4663 11.1058 31.9712C9.42308 32.476 8.58173 31.6346 9.59135 30.9615C10.601 30.2885 12.2837 29.9519 14.4712 30.1202C15.217 30.1776 15.8259 30.2545 16.4313 30.331C17.6014 30.4788 18.7583 30.625 20.8654 30.625C27.6559 30.625 31.6346 24.6708 31.6346 18.3413C31.6346 10.0704 24.9296 3.36538 16.6587 3.36538C8.38766 3.36538 1.68269 10.0704 1.68269 18.3413C1.68269 23.1594 3.95792 27.446 7.49255 30.1855C2.95172 26.8817 0 21.5258 0 15.4806C0 6.35168 7.61916 0 16.6587 0Z" fill="url(#paint0_linear_16_14)"/>
<defs>
<linearGradient id="paint0_linear_16_14" x1="17.5" y1="0" x2="18.5" y2="47" gradientUnits="userSpaceOnUse">
<stop stop-color="#FF592C"/>
<stop offset="1" stop-color="#FF592C" stop-opacity="0"/>
</linearGradient>
</defs>
</svg>
