<svg width="20" height="18" viewBox="0 0 20 18" fill="none" xmlns="http://www.w3.org/2000/svg">
<rect x="2.46558" y="4.41113" width="15.0517" height="12.9756" fill="url(#paint0_linear_11_1101)"/>
<path d="M1.94649 1.29688H18.0362L19.0743 4.67053H0.908447L1.94649 1.29688Z" fill="url(#paint1_linear_11_1101)"/>
<rect width="2.0761" height="2.0761" transform="matrix(1 0 0 -1 14.6626 2.07617)" fill="url(#paint2_linear_11_1101)"/>
<rect x="4.02271" y="6.22656" width="2.59512" height="2.59512" rx="0.5" fill="#FFFAF5"/>
<rect x="4.02271" y="11.418" width="2.59512" height="2.59512" rx="0.5" fill="#FFFAF5"/>
<rect x="8.69385" y="6.22656" width="2.59512" height="2.59512" rx="0.5" fill="#FFFAF5"/>
<rect x="8.69385" y="11.418" width="2.59512" height="2.59512" rx="0.5" fill="#FFFAF5"/>
<rect x="13.3652" y="6.22656" width="2.59512" height="2.59512" rx="0.5" fill="#FFFAF5"/>
<rect x="13.3652" y="11.418" width="2.59512" height="2.59512" rx="0.5" fill="#FFFAF5"/>
<defs>
<linearGradient id="paint0_linear_11_1101" x1="9.99142" y1="4.41113" x2="9.99142" y2="17.3867" gradientUnits="userSpaceOnUse">
<stop stop-color="#FFAD97"/>
<stop offset="1" stop-color="#FF5B2E"/>
</linearGradient>
<linearGradient id="paint1_linear_11_1101" x1="9.99136" y1="1.29687" x2="9.99136" y2="4.67053" gradientUnits="userSpaceOnUse">
<stop stop-color="#FFAD97"/>
<stop offset="1" stop-color="#FF5B2E"/>
</linearGradient>
<linearGradient id="paint2_linear_11_1101" x1="1.03805" y1="0" x2="1.03805" y2="2.0761" gradientUnits="userSpaceOnUse">
<stop stop-color="#FFAD97"/>
<stop offset="1" stop-color="#FF5B2E"/>
</linearGradient>
</defs>
</svg>
