<svg width="15" height="12" viewBox="0 0 15 12" fill="none" xmlns="http://www.w3.org/2000/svg">
<path opacity="0.7" d="M4.58338 11.9998C5.70216 12.007 6.8112 11.7889 7.84618 11.3583C8.88116 10.9277 9.82148 10.2931 10.6126 9.49132C11.4037 8.68956 12.0299 7.73659 12.4548 6.68769C12.8797 5.63878 13.0948 4.51481 13.0878 3.38098V2.98494C13.6677 2.55432 14.1697 2.02517 14.5714 1.42093C14.0253 1.66298 13.4475 1.82351 12.856 1.89751C13.4831 1.51878 13.9537 0.922635 14.1806 0.219387C13.5962 0.574774 12.9552 0.82461 12.2864 0.957762C11.8359 0.471352 11.2399 0.148943 10.5904 0.0404223C9.94098 -0.0680986 9.27434 0.0433178 8.69367 0.357432C8.113 0.671547 7.65065 1.17085 7.37818 1.77808C7.10571 2.38531 7.03829 3.06663 7.18636 3.7166C5.99815 3.65749 4.83554 3.34541 3.77424 2.80068C2.71294 2.25595 1.77675 1.49079 1.02662 0.555012C0.648377 1.22034 0.533729 2.00647 0.705893 2.75424C0.878056 3.50202 1.32417 4.15555 1.9539 4.58251C1.48934 4.56436 1.03553 4.43558 0.629221 4.20661V4.24018C0.625093 4.93548 0.856218 5.61122 1.28408 6.15476C1.71193 6.69831 2.31068 7.07683 2.98052 7.22724C2.54844 7.34502 2.09583 7.36337 1.65584 7.28094C1.84977 7.87391 2.21995 8.39157 2.71562 8.76292C3.21128 9.13426 3.80817 9.34111 4.42442 9.3551C3.37078 10.2147 2.06126 10.6878 0.708701 10.6976C0.471554 10.6906 0.234962 10.6705 0 10.6372C1.36902 11.5212 2.96012 11.9872 4.58338 11.9797" fill="#000958"/>
</svg>
